<svg xmlns="http://www.w3.org/2000/svg" width="18.018" height="18.018"><g fill="#fcfcfc"><path d="M12.763 1.501a3.766 3.766 0 0 1 3.754 3.754v7.507a3.765 3.765 0 0 1-3.754 3.754H5.256a3.765 3.765 0 0 1-3.754-3.754V5.255a3.766 3.766 0 0 1 3.754-3.754Zm0-1.5H5.256A5.271 5.271 0 0 0 .001 5.256v7.507a5.27 5.27 0 0 0 5.255 5.255h7.507a5.27 5.27 0 0 0 5.255-5.255V5.256A5.271 5.271 0 0 0 12.763.001"/><path d="M13.889 5.255a1.126 1.126 0 1 1 1.127-1.127 1.126 1.126 0 0 1-1.127 1.127ZM9.009 6.005a3 3 0 1 1-3 3 3 3 0 0 1 3-3m0-1.5a4.5 4.5 0 1 0 4.5 4.5 4.5 4.5 0 0 0-4.5-4.5"/></g></svg>