<svg xmlns="http://www.w3.org/2000/svg" width="18.019" height="18.019"><path fill="#fcfcfc" d="M16.578 0H1.54A1.47 1.47 0 0 0 0 1.4v15.076a1.586 1.586 0 0 0 1.54 1.544h15.033a1.506 1.506 0 0 0 1.446-1.544V1.403a1.382 1.382 0 0 0-1.441-1.4M5.586 15.022H3.005V6.996h2.581Zm-1.2-9.245h-.021a1.4 1.4 0 1 1 .018 0m10.636 9.245h-2.581v-4.388c0-1.052-.376-1.769-1.31-1.769a1.412 1.412 0 0 0-1.323.953 1.742 1.742 0 0 0-.089.634v4.571H7.135V6.997h2.581v1.117a2.614 2.614 0 0 1 2.328-1.3c1.694 0 2.976 1.116 2.976 3.524Z"/></svg>