<svg width="66" height="66" viewBox="0 0 66 66" fill="none" xmlns="http://www.w3.org/2000/svg">
<path d="M16.5 60C15.0413 60 13.6424 59.4205 12.6109 58.3891C11.5795 57.3576 11 55.9587 11 54.5V10.5C11 9.04132 11.5795 7.64237 12.6109 6.61092C13.6424 5.57947 15.0413 5.00001 16.5 5.00001H38.5C39.3705 4.9986 40.2327 5.16941 41.037 5.50262C41.8412 5.83583 42.5716 6.32485 43.186 6.94151L53.053 16.8085C53.6713 17.4232 54.1617 18.1542 54.4959 18.9595C54.8301 19.7647 55.0014 20.6282 55 21.5V54.5C55 55.9587 54.4205 57.3576 53.3891 58.3891C52.3576 59.4205 50.9587 60 49.5 60H16.5Z" stroke="black" stroke-width="3" stroke-linecap="round" stroke-linejoin="round"/>
<path d="M38.5 5V18.75C38.5 19.4793 38.7897 20.1788 39.3055 20.6945C39.8212 21.2103 40.5207 21.5 41.25 21.5H55" stroke="black" stroke-width="3" stroke-linecap="round" stroke-linejoin="round"/>
<path d="M44 60C44 57.0826 42.8411 54.2847 40.7782 52.2218C38.7153 50.1589 35.9174 49 33 49C30.0826 49 27.2847 50.1589 25.2218 52.2218C23.1589 54.2847 22 57.0826 22 60" stroke="black" stroke-width="3" stroke-linecap="round" stroke-linejoin="round"/>
<path d="M33 49C37.5563 49 41.25 45.3063 41.25 40.75C41.25 36.1937 37.5563 32.5 33 32.5C28.4437 32.5 24.75 36.1937 24.75 40.75C24.75 45.3063 28.4437 49 33 49Z" stroke="black" stroke-width="3" stroke-linecap="round" stroke-linejoin="round"/>
</svg>
