<svg width="66" height="66" viewBox="0 0 66 66" fill="none" xmlns="http://www.w3.org/2000/svg">
<path d="M28.875 8.25L22 24.75L33 60.5L44 24.75L37.125 8.25" stroke="black" stroke-width="3" stroke-linecap="round" stroke-linejoin="round"/>
<path d="M46.7509 8.25C47.6048 8.25 48.4469 8.4488 49.2106 8.83065C49.9743 9.2125 50.6386 9.76692 51.1509 10.45L59.4009 21.45C60.1085 22.3937 60.4939 23.5399 60.5004 24.7193C60.5068 25.8988 60.1339 27.0491 59.4367 28.0005L37.4642 58.212C36.9547 58.9201 36.2842 59.4968 35.5079 59.8947C34.7316 60.2925 33.8718 60.5 32.9995 60.5C32.1272 60.5 31.2675 60.2925 30.4912 59.8947C29.7149 59.4968 29.0443 58.9201 28.5349 58.212L6.56241 28.0005C5.86559 27.0488 5.49316 25.8984 5.5001 24.7189C5.50703 23.5394 5.89295 22.3934 6.60091 21.45L14.8454 10.4582C15.3574 9.77291 16.0222 9.21645 16.787 8.83311C17.5518 8.44976 18.3954 8.25011 19.2509 8.25H46.7509Z" stroke="black" stroke-width="3" stroke-linecap="round" stroke-linejoin="round"/>
<path d="M5.5 24.75H60.5" stroke="black" stroke-width="3" stroke-linecap="round" stroke-linejoin="round"/>
</svg>
