<svg width="66" height="66" viewBox="0 0 66 66" fill="none" xmlns="http://www.w3.org/2000/svg">
<path d="M27.5 40.3154V44.7869C27.4896 45.7291 27.2373 46.6529 26.7673 47.4696C26.2974 48.2863 25.6254 48.9685 24.816 49.4509C23.0976 50.7237 21.6998 52.3796 20.7336 54.2873C19.7674 56.1949 19.2594 58.3016 19.25 60.4399" stroke="black" stroke-width="3" stroke-linecap="round" stroke-linejoin="round"/>
<path d="M38.5 40.3154V44.7869C38.5104 45.7291 38.7627 46.6529 39.2327 47.4696C39.7026 48.2863 40.3746 48.9685 41.184 49.4509C42.9024 50.7237 44.3002 52.3796 45.2664 54.2873C46.2326 56.1949 46.7406 58.3016 46.75 60.4399" stroke="black" stroke-width="3" stroke-linecap="round" stroke-linejoin="round"/>
<path d="M49.5 24.75H53.625C55.4484 24.75 57.197 24.0257 58.4864 22.7364C59.7757 21.447 60.5 19.6984 60.5 17.875C60.5 16.0516 59.7757 14.303 58.4864 13.0136C57.197 11.7243 55.4484 11 53.625 11H49.5" stroke="black" stroke-width="3" stroke-linecap="round" stroke-linejoin="round"/>
<path d="M11 60.5H55" stroke="black" stroke-width="3" stroke-linecap="round" stroke-linejoin="round"/>
<path d="M16.5 24.75C16.5 29.1261 18.2384 33.3229 21.3327 36.4173C24.4271 39.5116 28.6239 41.25 33 41.25C37.3761 41.25 41.5729 39.5116 44.6673 36.4173C47.7616 33.3229 49.5 29.1261 49.5 24.75V8.25C49.5 7.52065 49.2103 6.82118 48.6945 6.30546C48.1788 5.78973 47.4793 5.5 46.75 5.5H19.25C18.5207 5.5 17.8212 5.78973 17.3055 6.30546C16.7897 6.82118 16.5 7.52065 16.5 8.25V24.75Z" stroke="black" stroke-width="3" stroke-linecap="round" stroke-linejoin="round"/>
<path d="M16.5 24.75H12.375C10.5516 24.75 8.80295 24.0257 7.51364 22.7364C6.22433 21.447 5.5 19.6984 5.5 17.875C5.5 16.0516 6.22433 14.303 7.51364 13.0136C8.80295 11.7243 10.5516 11 12.375 11H16.5" stroke="black" stroke-width="3" stroke-linecap="round" stroke-linejoin="round"/>
</svg>
