<svg width="66" height="66" viewBox="0 0 66 66" fill="none" xmlns="http://www.w3.org/2000/svg">
<path d="M33 28.0215V38.5017" stroke="black" stroke-width="3" stroke-linecap="round" stroke-linejoin="round"/>
<path d="M33 5.5V13.75" stroke="black" stroke-width="3" stroke-linecap="round" stroke-linejoin="round"/>
<path d="M52.25 35.75V19.25C52.25 17.7913 51.6705 16.3924 50.6391 15.3609C49.6076 14.3295 48.2087 13.75 46.75 13.75H19.25C17.7913 13.75 16.3924 14.3295 15.3609 15.3609C14.3295 16.3924 13.75 17.7913 13.75 19.25V35.75" stroke="black" stroke-width="3" stroke-linecap="round" stroke-linejoin="round"/>
<path d="M53.2934 54.9995C56.2515 50.0071 57.7918 44.3023 57.7484 38.4995L35.2314 28.4923C34.5284 28.1799 33.7676 28.0186 32.9984 28.0186C32.2291 28.0186 31.4684 28.1799 30.7654 28.4923L8.24837 38.4995C8.12107 46.3196 10.8711 53.914 15.9759 59.8395" stroke="black" stroke-width="3" stroke-linecap="round" stroke-linejoin="round"/>
<path d="M5.5 57.75C7.15 59.125 8.8 60.5 12.375 60.5C19.25 60.5 19.25 55 26.125 55C29.7 55 31.35 56.375 33 57.75C34.65 59.125 36.3 60.5 39.875 60.5C46.75 60.5 46.75 55 53.625 55C57.2 55 58.85 56.375 60.5 57.75" stroke="black" stroke-width="3" stroke-linecap="round" stroke-linejoin="round"/>
</svg>
